<svg xmlns="http://www.w3.org/2000/svg" width="33" height="33" fill="none"><g fill="#0DEC96" filter="url(#a)"><path d="m16.77 3.415-3.433 7.382-3.212-.095a7.55 7.55 0 0 0-1.564.1L9.99 7.644l.056-.118.087-.211c.042-.092.071-.171.113-.237 1.652-3.54 3.418-4.608 6.525-3.662ZM25.588 11.518l-.027-.014a8.92 8.92 0 0 0-2.428-.418l-8.343-.246 3.204-6.882.043-.092c.184.072.382.17.58.243l2.908 1.327c1.62.728 2.745 1.468 3.426 2.342.115.163.218.313.32.49.114.19.201.379.249.58.05.122.086.23.11.35.18.686.17 1.46-.042 2.32ZM16.935 24.029l.333.01c.4.011.744-.339.757-.779.017-.56-.141-.644-.484-.788l-.553-.216-.053 1.773Z"/><path d="M24.945 13.407a6.747 6.747 0 0 0-1.871-.322L10.066 12.7a6.37 6.37 0 0 0-2.574.444 6.525 6.525 0 0 0-4.121 5.868l-.077 2.599c-.01.32.008.627.039.948.168 4.247 2.367 6.58 6.597 6.984.305.05.61.085.944.095l10.395.306c4.932.146 7.6-2.123 7.99-6.78.021-.253.042-.52.05-.786l.077-2.599c.087-2.945-1.8-5.482-4.44-6.373Zm-6.912 7.773c.607.231 1.42.709 1.378 2.121-.036 1.213-1.01 2.158-2.184 2.123l-.333-.01-.008.294a.689.689 0 0 1-.714.672.689.689 0 0 1-.672-.713l.008-.293-.12-.004c-1.28-.038-2.3-1.148-2.26-2.48a.689.689 0 0 1 .713-.674.689.689 0 0 1 .672.714c-.016.56.396 1.039.916 1.054l.12.004.067-2.253-1.003-.39c-.606-.23-1.42-.708-1.378-2.121.036-1.213 1.011-2.158 2.184-2.123l.333.01.009-.294a.689.689 0 0 1 .713-.672.689.689 0 0 1 .673.713l-.009.293.12.004c1.28.038 2.3 1.148 2.261 2.481a.689.689 0 0 1-.713.673.689.689 0 0 1-.673-.714c.017-.56-.396-1.039-.916-1.054l-.12-.003-.066 2.252 1.002.39Z"/><path d="M14.621 19.265c-.016.56.141.644.484.788l.554.216.052-1.772-.333-.01c-.413-.012-.744.338-.757.778Z"/></g><defs><filter id="a" width="32.929" height="34.929" x="0" y="0" color-interpolation-filters="sRGB" filterUnits="userSpaceOnUse"><feFlood flood-opacity="0" result="BackgroundImageFix"/><feBlend in="SourceGraphic" in2="BackgroundImageFix" result="shape"/><feColorMatrix in="SourceAlpha" result="hardAlpha" values="0 0 0 0 0 0 0 0 0 0 0 0 0 0 0 0 0 0 127 0"/><feOffset dy="2"/><feGaussianBlur stdDeviation="1.85"/><feComposite in2="hardAlpha" k2="-1" k3="1" operator="arithmetic"/><feColorMatrix values="0 0 0 0 1 0 0 0 0 1 0 0 0 0 1 0 0 0 1 0"/><feBlend in2="shape" result="effect1_innerShadow_15_199614"/></filter></defs></svg>