<svg width="33" height="33" viewBox="0 0 33 33" fill="none" xmlns="http://www.w3.org/2000/svg">
<g filter="url(#filter0_i_15_199636)">
<path d="M20.0673 22.5C19.6721 22.1221 19.0322 22.1365 18.6543 22.5318L16.5434 24.7397L14.3354 22.6287C13.9402 22.2508 13.3003 22.2652 12.9225 22.6605C12.5446 23.0557 12.5589 23.6955 12.9542 24.0734L15.1621 26.1844L13.0512 28.3923C12.6733 28.7876 12.6876 29.4274 13.0829 29.8053C13.2873 30.0008 13.5427 30.0884 13.796 30.0827C14.0492 30.077 14.3004 29.978 14.4959 29.7736L16.6068 27.5657L18.8148 29.6766C19.0192 29.8721 19.2746 29.9597 19.5278 29.954C19.7811 29.9483 20.0323 29.8493 20.2278 29.6449C20.6056 29.2496 20.5913 28.6098 20.196 28.2319L17.9881 26.1209L20.099 23.913C20.4769 23.5178 20.4626 22.8779 20.0673 22.5Z" fill="#FF4BDA"/>
<path d="M26.4815 20.0888C28.2999 20.0479 29.7409 18.5407 29.7 16.7223C29.6592 14.9039 28.152 13.4629 26.3336 13.5038C24.5152 13.5446 23.0742 15.0518 23.115 16.8702C23.1559 18.6886 24.6631 20.1296 26.4815 20.0888Z" fill="#FF4BDA"/>
<path d="M7.35173 13.93L5.16562 13.9791C3.9509 14.0064 2.98828 15.0132 3.01556 16.2279L3.06465 18.414C3.09192 19.6288 4.09876 20.5914 5.31348 20.5641L7.4996 20.515C8.71432 20.4877 9.67693 19.4809 9.64965 18.2662L9.60057 16.0801C9.57329 14.8653 8.56645 13.9027 7.35173 13.93Z" fill="#FF4BDA"/>
<path d="M16.0558 3.02517L14.0186 6.73851L11.9945 10.4382L16.2201 10.3433L20.4457 10.2484L18.2576 6.64332L16.0558 3.02517Z" fill="#FF4BDA"/>
</g>
<defs>
<filter id="filter0_i_15_199636" x="-4.57764e-05" y="0" width="32.7103" height="34.7103" filterUnits="userSpaceOnUse" color-interpolation-filters="sRGB">
<feFlood flood-opacity="0" result="BackgroundImageFix"/>
<feBlend mode="normal" in="SourceGraphic" in2="BackgroundImageFix" result="shape"/>
<feColorMatrix in="SourceAlpha" type="matrix" values="0 0 0 0 0 0 0 0 0 0 0 0 0 0 0 0 0 0 127 0" result="hardAlpha"/>
<feOffset dy="2"/>
<feGaussianBlur stdDeviation="1.85"/>
<feComposite in2="hardAlpha" operator="arithmetic" k2="-1" k3="1"/>
<feColorMatrix type="matrix" values="0 0 0 0 1 0 0 0 0 1 0 0 0 0 1 0 0 0 1 0"/>
<feBlend mode="normal" in2="shape" result="effect1_innerShadow_15_199636"/>
</filter>
</defs>
</svg>
