<svg xmlns="http://www.w3.org/2000/svg" width="32" height="32" fill="none"><g fill="#DFC900" clip-path="url(#a)" filter="url(#b)"><path d="M30.053 13.2C28.72 6.52 22.813 1.667 16 1.667c-.547 0-1 .453-1 1v2.96c0 .546.453 1 1 1 .547 0 1-.454 1-1v-1.92c5.44.44 10.013 4.466 11.093 9.893 1.147 5.747-1.96 11.56-7.373 13.8-5.413 2.253-11.72.333-14.973-4.547C2.493 17.973 3.133 11.427 7.28 7.28a1.006 1.006 0 0 0 0-1.413 1.006 1.006 0 0 0-1.413 0C1.04 10.68.293 18.293 4.08 23.96c2.72 4.067 7.267 6.36 11.947 6.36 1.826 0 3.693-.347 5.453-1.08 6.293-2.613 9.907-9.36 8.573-16.04Z"/><path d="M12.693 16.947a3.263 3.263 0 0 0 2.374 1.946A3.227 3.227 0 0 0 18 18a3.238 3.238 0 0 0 .893-2.933 3.263 3.263 0 0 0-1.946-2.374l-6.307-2.6a.41.41 0 0 0-.453.094.41.41 0 0 0-.094.453l2.6 6.307Z"/></g><defs><clipPath id="a"><path fill="#fff" d="M0 0h32v32H0z"/></clipPath><filter id="b" width="32" height="34" x="0" y="0" color-interpolation-filters="sRGB" filterUnits="userSpaceOnUse"><feFlood flood-opacity="0" result="BackgroundImageFix"/><feBlend in="SourceGraphic" in2="BackgroundImageFix" result="shape"/><feColorMatrix in="SourceAlpha" result="hardAlpha" values="0 0 0 0 0 0 0 0 0 0 0 0 0 0 0 0 0 0 127 0"/><feOffset dy="2"/><feGaussianBlur stdDeviation="1.85"/><feComposite in2="hardAlpha" k2="-1" k3="1" operator="arithmetic"/><feColorMatrix values="0 0 0 0 1 0 0 0 0 1 0 0 0 0 1 0 0 0 1 0"/><feBlend in2="shape" result="effect1_innerShadow_15_199625"/></filter></defs></svg>