<svg xmlns="http://www.w3.org/2000/svg" width="50" height="51" fill="none"><g fill="#FF9320" filter="url(#a)"><path d="M23.092 42.32c10.16 0 18.395-8.404 18.395-18.771S33.251 4.778 23.092 4.778c-10.16 0-18.395 8.404-18.395 18.77 0 10.368 8.235 18.772 18.395 18.772ZM45.51 40.09c-.674-1.27-2.103-1.979-4.023-1.979-1.45 0-2.695.605-3.43 1.646-.735 1.042-.898 2.438-.449 3.834.878 2.708 2.41 3.312 3.247 3.416.122.021.245.021.388.021.898 0 2.286-.396 3.634-2.458 1.082-1.605 1.286-3.209.633-4.48Z"/></g><defs><filter id="a" width="49" height="52" x=".613" y=".611" color-interpolation-filters="sRGB" filterUnits="userSpaceOnUse"><feFlood flood-opacity="0" result="BackgroundImageFix"/><feBlend in="SourceGraphic" in2="BackgroundImageFix" result="shape"/><feColorMatrix in="SourceAlpha" result="hardAlpha" values="0 0 0 0 0 0 0 0 0 0 0 0 0 0 0 0 0 0 127 0"/><feOffset dy="2"/><feGaussianBlur stdDeviation="1.85"/><feComposite in2="hardAlpha" k2="-1" k3="1" operator="arithmetic"/><feColorMatrix values="0 0 0 0 1 0 0 0 0 1 0 0 0 0 1 0 0 0 1 0"/><feBlend in2="shape" result="effect1_innerShadow_1_54093"/></filter></defs></svg>