<svg width="72" height="72" viewBox="0 0 72 72" fill="none" xmlns="http://www.w3.org/2000/svg">
<path d="M34.8789 72V46.2915H37.1408V72H34.8789Z" fill="white"/>
<path d="M29.7989 44.3496C30.4988 44.7586 31.0735 45.0939 31.7697 45.4993C27.5039 52.9277 23.2675 60.3119 18.9796 67.7736C18.2686 67.3867 17.635 67.044 16.8945 66.6423C21.212 59.1844 25.4815 51.8112 29.7989 44.3496Z" fill="white"/>
<path d="M40.2148 45.5361C40.9148 45.1308 41.5115 44.7844 42.1894 44.3901C46.4994 51.8333 50.7689 59.2102 55.0753 66.6497C54.3791 67.0403 53.7713 67.3756 53.0492 67.7809C48.7613 60.3451 44.5065 52.9682 40.2185 45.5361H40.2148Z" fill="white"/>
<path d="M5.33077 54.9544C4.92555 54.2616 4.57559 53.6647 4.17773 52.983C11.5453 48.7382 18.8503 44.5302 26.2106 40.2891C26.6305 40.9634 27.0137 41.5714 27.4483 42.2715C20.077 46.4979 12.7647 50.6911 5.33077 54.9544Z" fill="white"/>
<path d="M34.8906 0H37.1304V24.5994H34.8906V0Z" fill="white"/>
<path d="M67.7374 52.972C67.3285 53.6794 66.9859 54.2764 66.5917 54.958C59.1689 50.7022 51.8381 46.4979 44.4668 42.2715C44.8868 41.5972 45.2551 41.0076 45.7009 40.2891C53.0132 44.497 60.3072 48.6977 67.7374 52.972Z" fill="white"/>
<path d="M31.2495 25.4988C30.5901 25.9225 30.008 26.2984 29.2823 26.7664C25.1675 19.6364 21.0638 12.5285 16.9121 5.33585C17.6415 4.9379 18.2714 4.59522 18.9971 4.19727C23.0972 11.3236 27.1641 18.3946 31.2532 25.4988H31.2495Z" fill="white"/>
<path d="M42.6994 26.7955C41.9847 26.3349 41.4027 25.9591 40.7285 25.5206C44.836 18.4348 48.9287 11.3748 53.084 4.20801C53.7618 4.59859 54.377 4.95601 55.0733 5.35765C50.9327 12.5319 46.8363 19.6287 42.6994 26.7918V26.7955Z" fill="white"/>
<path d="M67.7665 18.9323C60.5094 23.1218 53.3665 27.2451 46.172 31.3941C45.8037 30.7235 45.4795 30.1413 45.1074 29.467C45.6047 29.1611 46.0799 28.8479 46.5699 28.5642C52.9466 24.861 59.338 21.1763 65.6962 17.44C66.4809 16.9794 66.875 17.0567 67.1992 17.8711C67.3318 18.2027 67.5381 18.5085 67.7665 18.9323Z" fill="white"/>
<path d="M26.929 29.4335C26.557 30.1299 26.2438 30.7194 25.8755 31.4048C18.6552 27.2337 11.4902 23.0994 4.24414 18.9172C4.63831 18.2318 4.98459 17.6349 5.38612 16.9385C12.5843 21.117 19.7198 25.255 26.929 29.4371V29.4335Z" fill="white"/>
<path d="M71.9451 37.0872H46.7441C46.7847 36.3686 46.8215 35.7128 46.862 34.9427C47.2341 34.9205 47.5877 34.8874 47.9377 34.8874C55.4932 34.8837 63.045 34.88 70.6005 34.8874C72.1587 34.8874 71.9856 34.67 72.0003 36.3207C72.0003 36.5566 71.9672 36.7961 71.9451 37.0909V37.0872Z" fill="white"/>
<path d="M0 34.8873C0.445741 34.8873 0.810438 34.8873 1.17145 34.8873C8.76378 34.8799 16.3561 34.8873 23.9447 34.8467C24.8473 34.843 25.2783 35.031 25.1272 36.0001C25.0757 36.3243 25.1199 36.6633 25.1199 37.0686H0V34.8873Z" fill="white"/>
<path d="M44.1987 71.0649L37.5703 46.2324L39.7551 45.6448L46.3835 70.4773L44.1987 71.0649Z" fill="white"/>
<path d="M32.1619 45.6761C32.9435 45.8893 33.585 46.0639 34.362 46.2745C32.1568 54.5581 29.9686 62.7914 27.7506 71.1129C26.9641 70.9239 26.2637 70.7575 25.4449 70.5619C27.6924 62.2364 29.9154 54.0052 32.1619 45.6761Z" fill="white"/>
<path d="M42.5316 44.1157C43.1032 43.5423 43.5903 43.0527 44.1434 42.4958C50.2256 48.5655 56.2516 54.5818 62.3294 60.6489C61.7576 61.2071 61.2569 61.6889 60.664 62.268C54.605 56.1996 48.5932 50.1796 42.5352 44.1147L42.5316 44.1157Z" fill="white"/>
<path d="M11.262 62.2767C10.692 61.7128 10.2001 61.2272 9.64004 60.6721C15.6622 54.6577 21.6333 48.6951 27.6493 42.6862C28.2288 43.2284 28.7556 43.7161 29.356 44.2795C23.3255 50.277 17.3435 56.2272 11.262 62.2767Z" fill="white"/>
<path d="M25.6445 1.51562L27.808 0.933704L34.1504 24.6949L31.9869 25.2768L25.6445 1.51562Z" fill="white"/>
<path d="M71.0327 44.1476C70.8201 44.9372 70.6431 45.6028 70.4381 46.3636C62.1709 44.1813 54.0059 42.0249 45.7961 39.8577C46.0279 39.0973 46.2317 38.4321 46.477 37.6222C54.6251 39.787 62.7536 41.9494 71.0327 44.1476Z" fill="white"/>
<path d="M28.7044 27.0904C28.1767 27.671 27.7114 28.1853 27.1311 28.8258C21.3181 23.0079 15.5216 17.2084 9.65696 11.3395C10.2589 10.7656 10.779 10.271 11.3774 9.69802C17.1751 15.5162 22.9266 21.2897 28.7079 27.0894L28.7044 27.0904Z" fill="white"/>
<path d="M40.0985 25.3683C39.2894 25.1091 38.6303 24.8973 37.8661 24.6489C40.0066 16.7374 42.1396 8.85461 44.3056 0.852364C45.061 1.05353 45.7474 1.23894 46.5235 1.446C44.3737 9.45154 42.2466 17.3708 40.0975 25.3648L40.0985 25.3683Z" fill="white"/>
<path d="M62.2839 11.2601C56.3542 17.1924 50.5178 23.0309 44.6382 28.9078C44.1095 28.3557 43.6462 27.8776 43.113 27.323C43.5145 26.8983 43.8928 26.4723 44.2929 26.071C49.4975 20.8372 54.7211 15.6175 59.8993 10.3565C60.5385 9.70772 60.9392 9.68005 61.4623 10.3824C61.6759 10.6683 61.954 10.9101 62.2839 11.2601Z" fill="white"/>
<path d="M25.5436 32.0142C25.3638 32.7836 25.2133 33.4344 25.0342 34.1921C16.9845 32.0391 8.99775 29.9072 0.920322 27.7502C1.12435 26.9857 1.30493 26.3192 1.51322 25.5422C9.54345 27.7081 17.5027 29.8512 25.5446 32.0178L25.5436 32.0142Z" fill="white"/>
<path d="M71 27.7109L46.6577 34.2585C46.5116 33.5539 46.3781 32.9108 46.2187 32.1564C46.5724 32.0384 46.9054 31.9145 47.2435 31.8235C54.5405 29.857 61.8341 27.8913 69.134 25.9354C70.6392 25.5306 70.4159 25.3656 70.8557 26.9562C70.9165 27.184 70.9463 27.424 71.0009 27.7145L71 27.7109Z" fill="white"/>
<path d="M0.940151 44.2785C1.3707 44.1627 1.72297 44.0679 2.07169 43.9741C9.40341 41.9944 16.7389 40.0289 24.0585 38.0181C24.9294 37.7801 25.3941 37.8496 25.4981 38.8249C25.5319 39.1515 25.662 39.4675 25.7665 39.859L1.50257 46.3855L0.940151 44.2785Z" fill="white"/>
</svg>
