<svg xmlns="http://www.w3.org/2000/svg" width="32" height="32" fill="none"><path fill="#000" d="M19.822 29.68c.857.428 1.682.779 2.46 1.036A15.929 15.929 0 0 1 16 32c-2.834 0-5.489-.74-7.793-2.024 1.136-.226 2.413-.677 3.815-1.34.5-.239 1.008-.504 1.519-.791.79-.445 1.184-.667 1.545-.691a1.45 1.45 0 0 1 .333.012c.358.05.73.297 1.474.79a29.108 29.108 0 0 0 2.93 1.724ZM0 15.992c0-2.25.467-4.391 1.308-6.33.265.825.63 1.69 1.09 2.593 1.067 2.118 2.632 4.414 4.54 6.68a46.64 46.64 0 0 0 3.904 4.157c.506.471.758.707.838.953a1.01 1.01 0 0 1-.132.882c-.149.212-.427.348-.983.618-1.152.545-2.21.92-3.06 1.083a3.58 3.58 0 0 1-.988.077c-.063-.007-.117-.015-.171-.023a1.007 1.007 0 0 1-.273-.093.448.448 0 0 1-.117-.086c-.101-.117-.14-.28-.109-.498.04-.21.133-.483.304-.794.311-.584.84-1.34 1.62-2.281a46.185 46.185 0 0 1-2.305-2.531l-.203.25c-.996 1.198-1.666 2.148-2.11 2.973-.218.42-.389.81-.506 1.2A15.951 15.951 0 0 1 0 15.991ZM23.498 21.302c-.078-1.129.561-2.273 1.207-3.137a26.376 26.376 0 0 1 1.931 3.184c.685 1.355 1.082 2.546 1.199 3.543.117 1.035-.101 1.822-.615 2.328-.498.506-1.293.724-2.328.615-.997-.117-2.188-.522-3.543-1.2-1.012-.505-2.086-1.16-3.184-1.93.856-.654 2.017-1.3 3.153-1.222 1.674.1 4.602 2.42 4.602 2.42s-2.313-2.919-2.422-4.6ZM16.382 9.234c.856.7 3.13 2.826 3.41 3.114.971.971 1.854 2.01 2.771 3.029-1.478 1.267-3.59 1.506-5.263.436-2.702-1.736-8.455-6.976-8.455-6.976s5.24 5.754 6.976 8.455c.99 1.536.907 3.913-.436 5.256-1.066-.853-2.06-1.811-3.029-2.772-.288-.28-2.414-2.554-3.114-3.41-1.604-1.939-2.912-3.878-3.807-5.653-.701-1.378-1.114-2.6-1.23-3.613-.133-1.043.062-1.837.56-2.351.514-.506 1.308-.693 2.351-.568 1.012.125 2.227.53 3.613 1.23 1.775.919 3.714 2.227 5.653 3.823ZM28.722 11.804c.615-1.316 1.035-2.539 1.246-3.613A15.927 15.927 0 0 1 32 15.992c0 2.235-.46 4.36-1.292 6.291-.257-.786-.6-1.604-1.036-2.468-.724-1.448-1.705-2.997-2.873-4.57a28.352 28.352 0 0 0 1.822-3.231c.031-.062.07-.133.101-.21ZM22.694 10.473c-.562-.584-.842-.876-.877-1.22a1.023 1.023 0 0 1 .018-.313c.074-.338.372-.584.97-1.076a20.27 20.27 0 0 1 1.572-1.207c.312-.21.592-.382.833-.514.312-.163.584-.265.794-.303.218-.032.382 0 .499.109.117.1.186.288.21.552.023.265 0 .6-.078.99-.14.747-.451 1.65-.888 2.63-.007.032-.03.071-.046.102-.047.11-.101.218-.148.327a25.275 25.275 0 0 1-1.02 1.9 79.728 79.728 0 0 0-1.839-1.977ZM12.262 2.39A17.638 17.638 0 0 0 9.67 1.3 15.966 15.966 0 0 1 15.992 0a15.9 15.9 0 0 1 8.814 2.647c-1.365.39-2.76 1.264-3.975 2.26-1 .82-1.5 1.23-1.933 1.297a1.382 1.382 0 0 1-.4.01c-.436-.043-.92-.397-1.885-1.107-1.488-1.093-2.956-2.012-4.35-2.717Z"/></svg>