<svg width="32" height="32" viewBox="0 0 32 32" fill="none" xmlns="http://www.w3.org/2000/svg">
<path d="M19.229 28.7901C20.0599 29.2052 20.8605 29.5454 21.6158 29.7944C19.7426 30.5951 17.6882 31.0404 15.5209 31.0404C12.7718 31.0404 10.1965 30.3231 7.96094 29.0768C9.06338 28.858 10.302 28.42 11.6616 27.778C12.1473 27.5457 12.6395 27.2885 13.1349 27.0096C13.9006 26.5786 14.2835 26.3629 14.6334 26.3393C14.7525 26.3311 14.8386 26.3342 14.9565 26.3509C15.3041 26.4002 15.6649 26.6395 16.3864 27.1178C17.3616 27.7649 18.3158 28.3285 19.229 28.7901Z" fill="#FBFBFB"/>
<path d="M0 15.5124C0 13.33 0.453079 11.2528 1.26886 9.37256C1.52565 10.1728 1.88059 11.0111 2.3263 11.8874C3.36086 13.9418 4.87876 16.1695 6.7291 18.3674C7.89749 19.7643 9.16751 21.1391 10.5174 22.3994C11.0074 22.8567 11.2521 23.0852 11.3297 23.3238C11.4224 23.6101 11.374 23.9332 11.2013 24.1795C11.0574 24.3851 10.7878 24.5166 10.2486 24.7792C9.13105 25.308 8.10386 25.6707 7.28071 25.8293C6.90288 25.9046 6.5782 25.9274 6.32141 25.9046C6.26089 25.8972 6.20813 25.8894 6.15538 25.8821C6.04948 25.8592 5.95871 25.8293 5.89082 25.7913C5.84544 25.7688 5.80781 25.7385 5.77755 25.7083C5.67941 25.595 5.64178 25.4364 5.67204 25.2249C5.70966 25.0209 5.80044 24.7567 5.96646 24.4545C6.26865 23.8882 6.78224 23.1554 7.53751 22.2419C6.75198 21.4413 6.00409 20.6181 5.30197 19.7872C5.2337 19.8702 5.17357 19.9459 5.1053 20.0289C4.13862 21.1918 3.48926 22.1135 3.05868 22.9138C2.84727 23.3219 2.68124 23.6993 2.56797 24.0771C0.944174 21.6224 0 18.677 0 15.5124Z" fill="#FBFBFB"/>
<path d="M22.7947 20.6632C22.719 19.5681 23.3385 18.4579 23.9654 17.6196C24.7129 18.6844 25.3398 19.7268 25.8382 20.7086C26.5027 22.0228 26.8879 23.1784 27.0012 24.1451C27.1144 25.1494 26.903 25.9124 26.4046 26.4031C25.9212 26.8942 25.1508 27.1056 24.1465 26.9997C23.1799 26.8864 22.0243 26.4939 20.71 25.8368C19.7282 25.3461 18.6859 24.7114 17.6211 23.9639C18.452 23.3293 19.5773 22.7024 20.6798 22.7781C22.3036 22.8762 25.1435 25.1269 25.1435 25.1269C25.1435 25.1269 22.9002 22.2947 22.7947 20.6632Z" fill="#FBFBFB"/>
<path d="M15.8904 8.95729C16.7209 9.63691 18.9262 11.6987 19.1981 11.9783C20.1404 12.9202 20.9973 13.9276 21.8867 14.916C20.4526 16.1453 18.4045 16.3769 16.7814 15.3388C14.1607 13.6549 8.57944 8.57209 8.57944 8.57209C8.57944 8.57209 13.6622 14.1534 15.3466 16.7741C16.3074 18.2641 16.2259 20.5694 14.9237 21.872C13.8892 21.0442 12.9256 20.1152 11.9857 19.183C11.7064 18.9115 9.64425 16.7058 8.96463 15.8753C7.40911 13.9947 6.14025 12.1141 5.27172 10.3922C4.59171 9.05542 4.19178 7.86958 4.07851 6.88778C3.95011 5.87572 4.13863 5.10533 4.62197 4.60686C5.12043 4.11615 5.89083 3.935 6.90289 4.05564C7.88469 4.17667 9.06278 4.56923 10.4073 5.24885C12.1292 6.14028 14.0098 7.40913 15.8904 8.95729Z" fill="#FBFBFB"/>
<path d="M27.8616 11.4497C28.4582 10.1731 28.8659 8.98763 29.0699 7.94531C30.3236 10.1882 31.0409 12.7636 31.0409 15.5127C31.0409 17.6803 30.5956 19.7421 29.7875 21.6153C29.5381 20.8523 29.2057 20.0594 28.7828 19.2211C28.0803 17.8161 27.1288 16.3133 25.9961 14.7877C26.6757 13.738 27.2723 12.6883 27.7634 11.6534C27.7937 11.5932 27.8313 11.525 27.8616 11.4497Z" fill="#FBFBFB"/>
<path d="M22.0134 10.1592C21.4684 9.59243 21.1961 9.30925 21.1628 8.97526C21.1531 8.87518 21.1589 8.77045 21.1802 8.6723C21.252 8.34413 21.5413 8.10557 22.1205 7.62805C22.702 7.14471 23.2082 6.75214 23.6462 6.45733C23.9483 6.25367 24.2203 6.08726 24.4542 5.95886C24.7564 5.80059 25.0205 5.70207 25.2246 5.66444C25.436 5.63418 25.5946 5.66444 25.7079 5.77034C25.8212 5.86848 25.8891 6.04964 25.9119 6.30643C25.9344 6.56323 25.912 6.88791 25.8363 7.26574C25.7005 7.99074 25.3984 8.86665 24.9751 9.81819C24.9678 9.84845 24.9453 9.88647 24.9301 9.91634C24.8848 10.0222 24.832 10.1281 24.7866 10.2336C24.4996 10.838 24.1597 11.4571 23.7971 12.0766C23.202 11.4144 22.6116 10.7814 22.0134 10.1592Z" fill="#FBFBFB"/>
<path d="M11.8957 2.31855C11.0198 1.87284 10.1815 1.5179 9.38086 1.2611C11.2615 0.453083 13.331 0 15.5133 0C18.6779 0 21.6082 0.944174 24.0629 2.56797C22.7394 2.9458 21.3867 3.79339 20.2079 4.75967C19.2377 5.55528 18.7528 5.95328 18.3323 6.01767C18.183 6.04056 18.0949 6.04288 17.9444 6.02814C17.5216 5.98624 17.053 5.64217 16.1158 4.95363C14.6727 3.89386 13.2487 3.00244 11.8957 2.31855Z" fill="#FBFBFB"/>
</svg>
