<?xml version="1.0" standalone="no"?>
<!DOCTYPE svg PUBLIC "-//W3C//DTD SVG 20010904//EN"
 "http://www.w3.org/TR/2001/REC-SVG-20010904/DTD/svg10.dtd">
<svg version="1.0" xmlns="http://www.w3.org/2000/svg"
 width="151.000000pt" height="151.000000pt" viewBox="0 0 151.000000 151.000000"
 preserveAspectRatio="xMidYMid meet">

<g transform="translate(0.000000,151.000000) scale(0.100000,-0.100000)"
fill="#000000" stroke="none">
<path d="M939 1393 c-13 -16 -12 -17 4 -4 16 13 21 21 13 21 -2 0 -10 -8 -17
-17z"/>
<path d="M1001 1393 c-1 -6 -4 -20 -7 -30 -5 -17 -5 -17 6 0 6 10 9 23 6 30
-3 9 -5 9 -5 0z"/>
<path d="M937 1337 c-16 -23 -20 -32 -9 -19 11 12 22 19 25 15 2 -5 2 -3 1 4
-2 6 2 13 8 15 6 2 9 9 7 15 -2 7 -17 -7 -32 -30z"/>
<path d="M874 1302 c-6 -9 -34 -25 -62 -35 -28 -10 -56 -25 -63 -33 -9 -12 -6
-16 20 -25 19 -7 28 -15 24 -22 -13 -23 6 -1 52 61 25 35 45 66 43 68 -2 1 -9
-5 -14 -14z"/>
<path d="M872 1247 l-31 -43 31 4 c19 3 34 -1 40 -9 8 -11 9 -10 5 3 -3 9 -2
18 2 20 4 2 11 16 15 33 4 16 4 27 0 23 -4 -4 -12 -3 -19 2 -8 7 -21 -3 -43
-33z"/>
<path d="M615 1201 c-16 -4 -50 -18 -75 -31 -45 -23 -160 -107 -160 -116 0 -3
12 4 28 16 15 11 47 34 71 50 l44 29 19 -37 c11 -20 31 -56 44 -79 13 -23 24
-45 24 -50 0 -4 -23 -21 -50 -36 -28 -16 -50 -30 -50 -33 0 -3 26 8 57 25 31
17 62 31 68 31 6 0 26 22 44 50 17 27 47 68 66 91 19 22 35 44 34 47 0 4 -7
-3 -16 -15 -27 -40 -83 -24 -83 22 0 20 -18 46 -29 44 -4 -1 -19 -4 -36 -8z"/>
<path d="M819 1173 c-13 -16 -12 -17 4 -4 9 7 17 15 17 17 0 8 -8 3 -21 -13z"/>
<path d="M931 1174 c0 -11 3 -14 6 -6 3 7 2 16 -1 19 -3 4 -6 -2 -5 -13z"/>
<path d="M745 1066 c-31 -44 -50 -75 -43 -69 16 14 148 54 157 49 3 -2 14 20
22 50 l16 54 -48 -3 c-47 -2 -48 -2 -104 -81z"/>
<path d="M923 1133 c-3 -10 -12 -33 -19 -52 -15 -37 -18 -53 -6 -34 12 18 133
34 279 36 73 1 133 5 133 8 0 3 -17 11 -37 17 -99 30 -168 42 -252 42 -78 0
-93 -3 -98 -17z"/>
<path d="M851 1014 c0 -11 3 -14 6 -6 3 7 2 16 -1 19 -3 4 -6 -2 -5 -13z"/>
<path d="M334 998 l-19 -23 23 19 c21 18 27 26 19 26 -2 0 -12 -10 -23 -22z"/>
<path d="M751 944 c-27 -45 -27 -58 0 -19 l21 30 -6 -50 c-6 -55 6 -27 17 38
7 47 -5 47 -32 1z"/>
<path d="M290 929 c-12 -23 -20 -43 -18 -45 3 -2 14 17 26 41 27 56 20 60 -8
4z"/>
<path d="M831 954 c0 -11 3 -14 6 -6 3 7 2 16 -1 19 -3 4 -6 -2 -5 -13z"/>
<path d="M861 954 c0 -11 3 -14 6 -6 3 7 2 16 -1 19 -3 4 -6 -2 -5 -13z"/>
<path d="M639 923 c-13 -16 -12 -17 4 -4 9 7 17 15 17 17 0 8 -8 3 -21 -13z"/>
<path d="M811 899 c-1 -21 24 -43 41 -36 8 3 6 6 -5 6 -10 1 -22 11 -27 24 -6
15 -9 17 -9 6z"/>
<path d="M430 859 l-35 -30 38 26 c33 24 43 35 34 35 -1 0 -18 -14 -37 -31z"/>
<path d="M568 873 c-18 -21 -31 -43 -25 -43 2 0 13 14 25 30 25 33 24 41 0 13z"/>
<path d="M705 860 c-9 -16 -13 -30 -11 -30 3 0 12 14 21 30 9 17 13 30 11 30
-3 0 -12 -13 -21 -30z"/>
<path d="M913 883 c9 -2 23 -2 30 0 6 3 -1 5 -18 5 -16 0 -22 -2 -12 -5z"/>
<path d="M1003 873 c9 -2 23 -2 30 0 6 3 -1 5 -18 5 -16 0 -22 -2 -12 -5z"/>
<path d="M589 853 c-13 -16 -12 -17 4 -4 9 7 17 15 17 17 0 8 -8 3 -21 -13z"/>
<path d="M928 853 c12 -2 30 -2 40 0 9 3 -1 5 -23 4 -22 0 -30 -2 -17 -4z"/>
<path d="M751 833 c-1 -16 5 -23 17 -23 10 0 13 3 6 8 -6 4 -14 14 -17 22 -4
10 -6 8 -6 -7z"/>
<path d="M835 839 c-17 -8 -15 -8 8 -4 15 3 27 3 27 0 0 -2 -34 -60 -75 -127
-78 -127 -86 -135 -59 -54 9 26 14 49 11 52 -6 7 -49 -135 -44 -149 1 -5 39
48 82 119 43 71 85 139 93 152 13 20 13 22 -4 21 -11 0 -28 -5 -39 -10z"/>
<path d="M252 810 c0 -14 2 -19 5 -12 2 6 2 18 0 25 -3 6 -5 1 -5 -13z"/>
<path d="M340 785 c-24 -25 -42 -45 -39 -45 3 0 25 20 49 45 24 25 42 45 39
45 -3 0 -25 -20 -49 -45z"/>
<path d="M1029 813 c-13 -16 -12 -17 4 -4 9 7 17 15 17 17 0 8 -8 3 -21 -13z"/>
<path d="M989 803 c-13 -16 -12 -17 4 -4 9 7 17 15 17 17 0 8 -8 3 -21 -13z"/>
<path d="M1194 789 c-69 -73 -300 -219 -323 -204 -6 3 -15 -5 -22 -17 -7 -13
-37 -54 -68 -92 -32 -41 -45 -63 -31 -53 28 20 89 23 94 5 3 -7 7 -26 11 -42
6 -27 8 -28 49 -23 23 4 66 18 95 34 52 26 193 149 211 182 5 10 -26 -18 -69
-61 -43 -43 -84 -78 -90 -78 -15 0 -95 161 -84 170 4 4 41 28 82 55 66 43 195
154 180 155 -3 0 -18 -14 -35 -31z"/>
<path d="M530 770 c-12 -16 -19 -30 -16 -30 2 0 14 14 26 30 12 17 19 30 16
30 -2 0 -14 -13 -26 -30z"/>
<path d="M655 770 c-9 -16 -13 -30 -11 -30 3 0 12 14 21 30 9 17 13 30 11 30
-3 0 -12 -13 -21 -30z"/>
<path d="M498 773 c-24 -28 -60 -83 -55 -83 3 0 21 23 41 50 36 50 43 66 14
33z"/>
<path d="M252 750 c0 -14 2 -19 5 -12 2 6 2 18 0 25 -3 6 -5 1 -5 -13z"/>
<path d="M979 743 c-13 -16 -12 -17 4 -4 9 7 17 15 17 17 0 8 -8 3 -21 -13z"/>
<path d="M1271 744 c0 -11 3 -14 6 -6 3 7 2 16 -1 19 -3 4 -6 -2 -5 -13z"/>
<path d="M746 735 c4 -8 8 -15 10 -15 2 0 4 7 4 15 0 8 -4 15 -10 15 -5 0 -7
-7 -4 -15z"/>
<path d="M676 730 c-16 -5 -33 -7 -38 -4 -4 3 -8 0 -8 -6 0 -12 43 -6 85 11
27 11 -2 10 -39 -1z"/>
<path d="M285 720 c-4 -6 -11 -8 -16 -5 -5 4 -9 1 -9 -4 0 -16 16 -13 30 4 7
8 10 15 7 15 -3 0 -9 -5 -12 -10z"/>
<path d="M489 713 c-13 -16 -12 -17 4 -4 9 7 17 15 17 17 0 8 -8 3 -21 -13z"/>
<path d="M919 713 c-13 -16 -12 -17 4 -4 16 13 21 21 13 21 -2 0 -10 -8 -17
-17z"/>
<path d="M930 680 c-12 -16 -19 -30 -16 -30 2 0 14 14 26 30 12 17 19 30 16
30 -2 0 -14 -13 -26 -30z"/>
<path d="M889 673 c-13 -16 -12 -17 4 -4 9 7 17 15 17 17 0 8 -8 3 -21 -13z"/>
<path d="M460 668 c0 -5 30 -7 68 -7 69 2 62 6 -20 11 -27 2 -48 0 -48 -4z"/>
<path d="M645 653 c11 -3 24 -10 28 -17 6 -7 7 -6 4 4 -2 8 -14 16 -28 17 -19
1 -20 1 -4 -4z"/>
<path d="M439 637 c5 -5 30 -7 57 -5 l49 3 -57 5 c-31 3 -53 1 -49 -3z"/>
<path d="M850 620 c-12 -16 -19 -30 -16 -30 2 0 14 14 26 30 12 17 19 30 16
30 -2 0 -14 -13 -26 -30z"/>
<path d="M884 618 l-19 -23 23 19 c12 11 22 21 22 23 0 8 -8 2 -26 -19z"/>
<path d="M1226 623 c-6 -14 -5 -15 5 -6 7 7 10 15 7 18 -3 3 -9 -2 -12 -12z"/>
<path d="M666 605 c-9 -26 -7 -32 5 -12 6 10 9 21 6 23 -2 3 -7 -2 -11 -11z"/>
<path d="M621 564 c0 -11 3 -14 6 -6 3 7 2 16 -1 19 -3 4 -6 -2 -5 -13z"/>
<path d="M646 555 c-9 -26 -7 -32 5 -12 6 10 9 21 6 23 -2 3 -7 -2 -11 -11z"/>
<path d="M745 534 c-22 -8 -56 -16 -76 -17 -34 -2 -37 -5 -55 -58 l-20 -57 30
9 c17 5 42 9 56 9 25 0 29 5 113 118 12 15 2 14 -48 -4z"/>
<path d="M598 510 c-5 -16 -122 -29 -268 -30 -90 0 -120 -3 -108 -11 34 -19
167 -49 251 -55 73 -6 84 -9 80 -23 -4 -9 -4 -14 -1 -11 9 8 58 134 54 138 -2
2 -6 -2 -8 -8z"/>
<path d="M709 383 c-13 -16 -12 -17 4 -4 16 13 21 21 13 21 -2 0 -10 -8 -17
-17z"/>
<path d="M665 370 c-3 -5 -21 -17 -40 -26 -21 -10 -35 -24 -35 -35 0 -34 16
-28 53 22 20 27 34 49 32 49 -2 0 -7 -4 -10 -10z"/>
<path d="M668 326 c-16 -19 -28 -38 -28 -42 0 -11 71 6 112 27 49 25 42 49
-16 49 -35 0 -45 -5 -68 -34z"/>
<path d="M564 238 l-19 -23 23 19 c21 18 27 26 19 26 -2 0 -12 -10 -23 -22z"/>
<path d="M589 223 c-13 -16 -12 -17 4 -4 16 13 21 21 13 21 -2 0 -10 -8 -17
-17z"/>
<path d="M502 176 c-8 -21 -12 -39 -10 -40 1 -2 14 10 28 27 14 17 20 28 13
24 -7 -4 -13 0 -15 9 -2 10 -8 2 -16 -20z"/>
<path d="M559 183 c-13 -16 -12 -17 4 -4 16 13 21 21 13 21 -2 0 -10 -8 -17
-17z"/>
<path d="M461 144 c0 -11 3 -14 6 -6 3 7 2 16 -1 19 -3 4 -6 -2 -5 -13z"/>
<path d="M499 103 c-13 -16 -12 -17 4 -4 16 13 21 21 13 21 -2 0 -10 -8 -17
-17z"/>
<path d="M436 83 c-6 -14 -5 -15 5 -6 7 7 10 15 7 18 -3 3 -9 -2 -12 -12z"/>
</g>
</svg>
