<?xml version="1.0" encoding="UTF-8"?>
<svg xmlns="http://www.w3.org/2000/svg" xmlns:xlink="http://www.w3.org/1999/xlink" width="489.28pt" height="172.89pt" viewBox="0 0 489.28 172.89" version="1.1">
<defs>
<clipPath id="clip1">
  <path d="M 0 148 L 23 148 L 23 172.890625 L 0 172.890625 Z M 0 148 "/>
</clipPath>
<clipPath id="clip2">
  <path d="M 22 147 L 49 147 L 49 172.890625 L 22 172.890625 Z M 22 147 "/>
</clipPath>
<clipPath id="clip3">
  <path d="M 184 147 L 212 147 L 212 172.890625 L 184 172.890625 Z M 184 147 "/>
</clipPath>
<clipPath id="clip4">
  <path d="M 231 147 L 258 147 L 258 172.890625 L 231 172.890625 Z M 231 147 "/>
</clipPath>
<clipPath id="clip5">
  <path d="M 272 147 L 291 147 L 291 172.890625 L 272 172.890625 Z M 272 147 "/>
</clipPath>
<clipPath id="clip6">
  <path d="M 309 147 L 336 147 L 336 172.890625 L 309 172.890625 Z M 309 147 "/>
</clipPath>
<clipPath id="clip7">
  <path d="M 423 147 L 446 147 L 446 172.890625 L 423 172.890625 Z M 423 147 "/>
</clipPath>
<clipPath id="clip8">
  <path d="M 421 0 L 489.28125 0 L 489.28125 129 L 421 129 Z M 421 0 "/>
</clipPath>
</defs>
<g id="surface1">
<g clip-path="url(#clip1)" clip-rule="nonzero">
<path style=" stroke:none;fill-rule:nonzero;fill:#ffffff;fill-opacity:1;" d="M 3.925781 148.472656 L 7.585938 148.472656 L 4.15625 162.714844 C 3.632813 164.808594 3.75 166.4375 4.449219 167.484375 C 5.144531 168.53125 6.425781 169.054688 8.34375 169.054688 C 10.203125 169.054688 11.773438 168.53125 12.992188 167.484375 C 14.214844 166.4375 15.027344 164.808594 15.550781 162.714844 L 18.980469 148.472656 L 22.703125 148.472656 L 19.214844 163.066406 C 18.457031 166.203125 17.121094 168.589844 15.144531 170.15625 C 13.226563 171.726563 10.667969 172.542969 7.527344 172.542969 C 4.390625 172.542969 2.238281 171.785156 1.074219 170.214844 C -0.0859375 168.644531 -0.320313 166.261719 0.4375 163.125 L 3.925781 148.472656 "/>
</g>
<g clip-path="url(#clip2)" clip-rule="nonzero">
<path style=" stroke:none;fill-rule:nonzero;fill:#ffffff;fill-opacity:1;" d="M 22.179688 171.902344 L 27.992188 147.546875 L 39.035156 161.84375 C 39.328125 162.253906 39.617188 162.660156 39.910156 163.125 C 40.199219 163.589844 40.488281 164.113281 40.839844 164.691406 L 44.734375 148.472656 L 48.164063 148.472656 L 42.351563 172.773438 L 31.074219 158.183594 C 30.78125 157.773438 30.492188 157.367188 30.199219 156.960938 C 29.910156 156.496094 29.675781 156.089844 29.503906 155.566406 L 25.609375 171.84375 L 22.179688 171.84375 L 22.179688 171.902344 "/>
</g>
<path style=" stroke:none;fill-rule:nonzero;fill:#ffffff;fill-opacity:1;" d="M 47.871094 171.902344 L 53.453125 148.472656 L 57.175781 148.472656 L 51.59375 171.902344 L 47.871094 171.902344 "/>
<path style=" stroke:none;fill-rule:nonzero;fill:#ffffff;fill-opacity:1;" d="M 56.882813 171.902344 L 62.464844 148.472656 L 75.195313 148.472656 L 74.441406 151.730469 L 65.429688 151.730469 L 64.035156 157.542969 L 73.042969 157.542969 L 72.230469 160.855469 L 63.21875 160.855469 L 60.605469 171.84375 L 56.882813 171.84375 L 56.882813 171.902344 "/>
<path style=" stroke:none;fill-rule:nonzero;fill:#ffffff;fill-opacity:1;" d="M 73.742188 171.902344 L 79.324219 148.472656 L 83.042969 148.472656 L 77.464844 171.902344 L 73.742188 171.902344 "/>
<path style=" stroke:none;fill-rule:nonzero;fill:#ffffff;fill-opacity:1;" d="M 82.753906 171.902344 L 88.332031 148.472656 L 101.066406 148.472656 L 100.308594 151.730469 L 91.296875 151.730469 L 89.902344 157.601563 L 98.914063 157.601563 L 98.101563 160.917969 L 89.089844 160.917969 L 87.285156 168.472656 L 96.296875 168.472656 L 95.484375 171.902344 L 82.753906 171.902344 "/>
<path style=" stroke:none;fill-rule:nonzero;fill:#ffffff;fill-opacity:1;" d="M 104.320313 168.414063 L 107.460938 168.414063 C 109.144531 168.414063 110.480469 168.296875 111.414063 168.066406 C 112.34375 167.835938 113.15625 167.425781 113.910156 166.902344 C 114.957031 166.144531 115.832031 165.214844 116.527344 164.054688 C 117.226563 162.949219 117.75 161.613281 118.097656 160.101563 C 118.445313 158.589844 118.5625 157.308594 118.386719 156.207031 C 118.214844 155.101563 117.808594 154.113281 117.109375 153.355469 C 116.585938 152.777344 115.945313 152.425781 115.074219 152.195313 C 114.203125 151.960938 112.867188 151.847656 110.945313 151.847656 L 108.273438 151.847656 Z M 99.785156 171.902344 L 105.367188 148.472656 L 110.367188 148.472656 C 113.621094 148.472656 115.890625 148.648438 117.109375 148.996094 C 118.328125 149.347656 119.375 149.871094 120.191406 150.683594 C 121.238281 151.730469 121.933594 153.066406 122.226563 154.636719 C 122.515625 156.265625 122.398438 158.125 121.933594 160.160156 C 121.410156 162.253906 120.65625 164.054688 119.609375 165.679688 C 118.5625 167.308594 117.226563 168.589844 115.65625 169.632813 C 114.492188 170.449219 113.214844 170.972656 111.820313 171.320313 C 110.480469 171.671875 108.449219 171.84375 105.773438 171.84375 L 99.785156 171.84375 L 99.785156 171.902344 "/>
<path style=" stroke:none;fill-rule:nonzero;fill:#ffffff;fill-opacity:1;" d="M 140.015625 158.242188 L 140.945313 158.242188 C 142.980469 158.242188 144.433594 158.007813 145.246094 157.542969 C 146.058594 157.078125 146.582031 156.265625 146.875 155.101563 C 147.164063 153.878906 146.988281 152.949219 146.40625 152.484375 C 145.769531 151.960938 144.488281 151.730469 142.570313 151.730469 L 141.640625 151.730469 Z M 139.023438 161.378906 L 136.527344 171.902344 L 133.039063 171.902344 L 138.617188 148.472656 L 144.257813 148.472656 C 145.941406 148.472656 147.105469 148.589844 147.863281 148.765625 C 148.617188 148.9375 149.199219 149.230469 149.664063 149.695313 C 150.246094 150.21875 150.652344 150.972656 150.828125 151.902344 C 151 152.835938 150.941406 153.820313 150.710938 154.925781 C 150.417969 156.03125 150.011719 157.078125 149.371094 158.007813 C 148.734375 158.9375 147.976563 159.695313 147.164063 160.21875 C 146.46875 160.625 145.710938 160.972656 144.898438 161.148438 C 144.082031 161.320313 142.804688 161.4375 141.175781 161.4375 L 139.023438 161.4375 L 139.023438 161.378906 "/>
<path style=" stroke:none;fill-rule:nonzero;fill:#ffffff;fill-opacity:1;" d="M 155.304688 162.660156 L 161.640625 162.660156 L 160.59375 157.308594 C 160.535156 156.960938 160.476563 156.554688 160.476563 156.148438 C 160.417969 155.683594 160.417969 155.21875 160.417969 154.695313 C 160.1875 155.21875 159.953125 155.683594 159.664063 156.148438 C 159.429688 156.613281 159.199219 157.019531 158.964844 157.367188 Z M 163.324219 171.902344 L 162.164063 165.855469 L 153.09375 165.855469 L 149.023438 171.902344 L 145.128906 171.902344 L 161.988281 147.546875 L 167.21875 171.902344 L 163.324219 171.902344 "/>
<path style=" stroke:none;fill-rule:nonzero;fill:#ffffff;fill-opacity:1;" d="M 172.566406 171.902344 L 175.125 161.207031 L 170.476563 148.53125 L 174.371094 148.53125 L 177.277344 156.496094 C 177.335938 156.730469 177.394531 156.960938 177.507813 157.308594 C 177.625 157.660156 177.683594 158.007813 177.800781 158.355469 C 178.03125 158.007813 178.265625 157.660156 178.496094 157.308594 C 178.730469 156.960938 178.964844 156.671875 179.195313 156.378906 L 185.996094 148.53125 L 189.71875 148.53125 L 178.847656 161.148438 L 176.289063 171.84375 L 172.566406 171.84375 L 172.566406 171.902344 "/>
<g clip-path="url(#clip3)" clip-rule="nonzero">
<path style=" stroke:none;fill-rule:nonzero;fill:#ffffff;fill-opacity:1;" d="M 207.972656 160.335938 C 207.972656 160.160156 208.027344 159.636719 208.144531 158.820313 C 208.203125 158.125 208.261719 157.601563 208.320313 157.136719 C 208.085938 157.660156 207.855469 158.183594 207.5625 158.761719 C 207.273438 159.285156 206.925781 159.867188 206.519531 160.390625 L 197.566406 172.890625 L 194.660156 160.160156 C 194.542969 159.636719 194.425781 159.113281 194.367188 158.648438 C 194.308594 158.183594 194.253906 157.660156 194.253906 157.195313 C 194.136719 157.660156 193.960938 158.183594 193.785156 158.761719 C 193.613281 159.285156 193.378906 159.867188 193.089844 160.449219 L 187.855469 171.960938 L 184.425781 171.960938 L 195.648438 147.546875 L 198.84375 162.308594 C 198.902344 162.542969 198.960938 162.949219 199.019531 163.472656 C 199.078125 163.996094 199.191406 164.691406 199.308594 165.507813 C 199.714844 164.808594 200.238281 163.996094 200.9375 162.949219 C 201.109375 162.660156 201.285156 162.484375 201.34375 162.308594 L 211.460938 147.546875 L 211.109375 171.960938 L 207.679688 171.960938 L 207.972656 160.335938 "/>
</g>
<path style=" stroke:none;fill-rule:nonzero;fill:#ffffff;fill-opacity:1;" d="M 214.132813 171.902344 L 219.714844 148.472656 L 232.445313 148.472656 L 231.6875 151.730469 L 222.679688 151.730469 L 221.285156 157.601563 L 230.292969 157.601563 L 229.480469 160.917969 L 220.46875 160.917969 L 218.667969 168.472656 L 227.679688 168.472656 L 226.863281 171.902344 L 214.132813 171.902344 "/>
<g clip-path="url(#clip4)" clip-rule="nonzero">
<path style=" stroke:none;fill-rule:nonzero;fill:#ffffff;fill-opacity:1;" d="M 231.109375 171.902344 L 236.921875 147.546875 L 247.96875 161.84375 C 248.257813 162.253906 248.550781 162.660156 248.839844 163.125 C 249.128906 163.589844 249.421875 164.113281 249.769531 164.691406 L 253.664063 148.472656 L 257.09375 148.472656 L 251.28125 172.773438 L 240.003906 158.183594 C 239.710938 157.773438 239.421875 157.367188 239.128906 156.960938 C 238.839844 156.496094 238.605469 156.089844 238.433594 155.566406 L 234.539063 171.84375 L 231.109375 171.84375 L 231.109375 171.902344 "/>
</g>
<path style=" stroke:none;fill-rule:nonzero;fill:#ffffff;fill-opacity:1;" d="M 268.953125 151.671875 L 264.128906 171.84375 L 260.40625 171.84375 L 265.230469 151.671875 L 259.1875 151.671875 L 259.941406 148.417969 L 275.753906 148.417969 L 274.996094 151.671875 L 268.953125 151.671875 "/>
<g clip-path="url(#clip5)" clip-rule="nonzero">
<path style=" stroke:none;fill-rule:nonzero;fill:#ffffff;fill-opacity:1;" d="M 272.847656 167.191406 L 276.160156 165.796875 C 276.21875 166.84375 276.511719 167.65625 277.148438 168.179688 C 277.789063 168.703125 278.660156 168.996094 279.824219 168.996094 C 280.929688 168.996094 281.859375 168.703125 282.671875 168.066406 C 283.484375 167.425781 284.011719 166.613281 284.242188 165.566406 C 284.589844 164.171875 283.777344 162.949219 281.800781 161.902344 C 281.511719 161.726563 281.335938 161.613281 281.160156 161.554688 C 278.949219 160.273438 277.558594 159.171875 276.976563 158.125 C 276.394531 157.078125 276.277344 155.855469 276.628906 154.402344 C 277.09375 152.484375 278.078125 150.972656 279.648438 149.753906 C 281.21875 148.589844 282.964844 147.949219 285.058594 147.949219 C 286.742188 147.949219 288.078125 148.300781 289.066406 148.9375 C 290.054688 149.578125 290.578125 150.566406 290.753906 151.789063 L 287.496094 153.300781 C 287.207031 152.546875 286.855469 152.019531 286.394531 151.671875 C 285.929688 151.324219 285.347656 151.148438 284.648438 151.148438 C 283.660156 151.148438 282.789063 151.4375 282.09375 151.960938 C 281.394531 152.484375 280.929688 153.183594 280.695313 154.113281 C 280.347656 155.507813 281.335938 156.84375 283.601563 158.066406 C 283.777344 158.183594 283.894531 158.242188 284.011719 158.296875 C 285.984375 159.34375 287.320313 160.390625 287.902344 161.4375 C 288.484375 162.484375 288.601563 163.703125 288.253906 165.273438 C 287.730469 167.484375 286.625 169.226563 284.9375 170.566406 C 283.253906 171.84375 281.277344 172.542969 278.949219 172.542969 C 277.03125 172.542969 275.519531 172.074219 274.476563 171.144531 C 273.3125 170.214844 272.789063 168.878906 272.847656 167.191406 "/>
</g>
<path style=" stroke:none;fill-rule:nonzero;fill:#ffffff;fill-opacity:1;" d="M 300.230469 171.902344 L 305.808594 148.472656 L 309.527344 148.472656 L 303.949219 171.902344 L 300.230469 171.902344 "/>
<g clip-path="url(#clip6)" clip-rule="nonzero">
<path style=" stroke:none;fill-rule:nonzero;fill:#ffffff;fill-opacity:1;" d="M 309.296875 171.902344 L 315.109375 147.546875 L 326.15625 161.84375 C 326.445313 162.253906 326.734375 162.660156 327.027344 163.125 C 327.316406 163.589844 327.609375 164.113281 327.957031 164.691406 L 331.855469 148.472656 L 335.28125 148.472656 L 329.46875 172.773438 L 318.191406 158.183594 C 317.898438 157.773438 317.609375 157.367188 317.320313 156.960938 C 317.027344 156.496094 316.796875 156.089844 316.621094 155.566406 L 312.726563 171.84375 L 309.296875 171.84375 L 309.296875 171.902344 "/>
</g>
<path style=" stroke:none;fill-rule:nonzero;fill:#ffffff;fill-opacity:1;" d="M 347.140625 151.671875 L 342.316406 171.84375 L 338.597656 171.84375 L 343.421875 151.671875 L 337.375 151.671875 L 338.132813 148.417969 L 353.941406 148.417969 L 353.1875 151.671875 L 347.140625 151.671875 "/>
<path style=" stroke:none;fill-rule:nonzero;fill:#ffffff;fill-opacity:1;" d="M 351.152344 171.902344 L 356.734375 148.472656 L 369.523438 148.472656 L 368.769531 151.730469 L 359.757813 151.730469 L 358.359375 157.601563 L 367.371094 157.601563 L 366.558594 160.917969 L 357.546875 160.917969 L 355.746094 168.472656 L 364.757813 168.472656 L 363.941406 171.902344 L 351.152344 171.902344 "/>
<path style=" stroke:none;fill-rule:nonzero;fill:#ffffff;fill-opacity:1;" d="M 375.046875 158.417969 L 375.742188 158.417969 C 377.71875 158.417969 379.058594 158.183594 379.8125 157.71875 C 380.566406 157.253906 381.09375 156.4375 381.382813 155.21875 C 381.671875 153.9375 381.558594 153.007813 380.976563 152.484375 C 380.394531 151.960938 379.171875 151.671875 377.3125 151.671875 L 376.613281 151.671875 Z M 374.113281 161.378906 L 371.613281 171.84375 L 368.128906 171.84375 L 373.710938 148.417969 L 378.882813 148.417969 C 380.394531 148.417969 381.558594 148.53125 382.3125 148.707031 C 383.125 148.882813 383.765625 149.230469 384.230469 149.695313 C 384.8125 150.277344 385.160156 150.972656 385.335938 151.902344 C 385.511719 152.777344 385.449219 153.765625 385.21875 154.867188 C 384.753906 156.730469 383.996094 158.242188 382.835938 159.285156 C 381.671875 160.335938 380.21875 160.972656 378.476563 161.207031 L 383.765625 171.84375 L 379.578125 171.84375 L 374.519531 161.378906 L 374.113281 161.378906 "/>
<path style=" stroke:none;fill-rule:nonzero;fill:#ffffff;fill-opacity:1;" d="M 386.03125 171.902344 L 391.613281 148.472656 L 404.34375 148.472656 L 403.589844 151.730469 L 394.578125 151.730469 L 393.183594 157.542969 L 402.191406 157.542969 L 401.378906 160.855469 L 392.367188 160.855469 L 389.753906 171.84375 L 386.03125 171.84375 L 386.03125 171.902344 "/>
<path style=" stroke:none;fill-rule:nonzero;fill:#ffffff;fill-opacity:1;" d="M 408.644531 162.660156 L 414.980469 162.660156 L 413.9375 157.308594 C 413.878906 156.960938 413.820313 156.554688 413.820313 156.148438 C 413.761719 155.683594 413.761719 155.21875 413.761719 154.695313 C 413.527344 155.21875 413.296875 155.683594 413.007813 156.148438 C 412.773438 156.613281 412.539063 157.019531 412.308594 157.367188 Z M 416.726563 171.902344 L 415.5625 165.855469 L 406.496094 165.855469 L 402.425781 171.902344 L 398.53125 171.902344 L 415.390625 147.546875 L 420.621094 171.902344 L 416.726563 171.902344 "/>
<g clip-path="url(#clip7)" clip-rule="nonzero">
<path style=" stroke:none;fill-rule:nonzero;fill:#ffffff;fill-opacity:1;" d="M 444.804688 154.171875 C 443.988281 153.242188 443.003906 152.546875 441.957031 152.136719 C 440.910156 151.671875 439.746094 151.4375 438.410156 151.4375 C 435.910156 151.4375 433.699219 152.253906 431.726563 153.878906 C 429.746094 155.507813 428.46875 157.660156 427.828125 160.273438 C 427.246094 162.773438 427.480469 164.867188 428.644531 166.554688 C 429.746094 168.179688 431.492188 168.996094 433.816406 168.996094 C 435.152344 168.996094 436.492188 168.761719 437.828125 168.238281 C 439.164063 167.773438 440.503906 167.019531 441.898438 166.03125 L 440.851563 170.332031 C 439.6875 171.085938 438.46875 171.609375 437.1875 171.960938 C 435.910156 172.308594 434.632813 172.484375 433.234375 172.484375 C 431.492188 172.484375 429.921875 172.191406 428.585938 171.609375 C 427.246094 171.03125 426.144531 170.15625 425.269531 168.996094 C 424.398438 167.890625 423.878906 166.554688 423.644531 165.042969 C 423.410156 163.53125 423.472656 161.902344 423.9375 160.160156 C 424.34375 158.417969 425.039063 156.84375 425.972656 155.335938 C 426.898438 153.820313 428.121094 152.484375 429.515625 151.378906 C 430.910156 150.21875 432.421875 149.347656 434.050781 148.765625 C 435.679688 148.183594 437.304688 147.894531 438.992188 147.894531 C 440.328125 147.894531 441.550781 148.066406 442.714844 148.472656 C 443.816406 148.882813 444.863281 149.460938 445.792969 150.277344 L 444.804688 154.171875 "/>
</g>
<path style=" stroke:none;fill-rule:nonzero;fill:#ffffff;fill-opacity:1;" d="M 445.152344 171.902344 L 450.734375 148.472656 L 463.464844 148.472656 L 462.710938 151.730469 L 453.699219 151.730469 L 452.304688 157.601563 L 461.3125 157.601563 L 460.5 160.917969 L 451.488281 160.917969 L 449.6875 168.472656 L 458.699219 168.472656 L 457.886719 171.902344 L 445.152344 171.902344 "/>
<path style=" stroke:none;fill-rule:nonzero;fill:#ffffff;fill-opacity:1;" d="M 377.484375 128.070313 L 351.96875 128.070313 L 387.429688 0.00390625 L 412.945313 0.00390625 L 377.484375 128.070313 "/>
<path style=" stroke:none;fill-rule:nonzero;fill:#ffffff;fill-opacity:1;" d="M 364.230469 4.015625 C 362.488281 1.570313 359.757813 0.351563 356.035156 0.351563 L 215.820313 0.351563 L 208.902344 25.464844 L 336.445313 25.464844 L 329.003906 52.265625 L 226.980469 52.265625 L 226.980469 52.207031 L 201.460938 52.207031 L 180.300781 128.652344 L 205.820313 128.652344 L 220.003906 77.378906 L 334.699219 77.378906 C 338.304688 77.378906 341.679688 76.15625 344.816406 73.714844 C 347.953125 71.273438 350.050781 68.25 351.035156 64.648438 L 365.222656 13.375 C 366.324219 9.535156 365.976563 6.457031 364.230469 4.015625 "/>
<path style=" stroke:none;fill-rule:nonzero;fill:#ffffff;fill-opacity:1;" d="M 165.417969 120.046875 C 164.023438 125.105469 159.371094 128.652344 154.140625 128.652344 L 22.585938 128.652344 C 18.980469 128.652344 16.308594 127.429688 14.5625 124.988281 C 12.820313 122.546875 12.410156 119.523438 13.457031 115.921875 L 45.546875 0.351563 L 71.070313 0.351563 L 42.410156 103.59375 L 144.488281 103.59375 L 173.148438 0.351563 L 198.671875 0.351563 L 165.417969 120.046875 "/>
<g clip-path="url(#clip8)" clip-rule="nonzero">
<path style=" stroke:none;fill-rule:nonzero;fill:#ffffff;fill-opacity:1;" d="M 457.011719 0.234375 L 489.277344 64.414063 L 421.4375 128.59375 Z M 457.011719 0.234375 "/>
</g>
<path style=" stroke:none;fill-rule:nonzero;fill:#ffffff;fill-opacity:1;" d="M 434.34375 0.234375 L 466.605469 64.414063 L 398.703125 128.59375 Z M 434.34375 0.234375 "/>
</g>
</svg>
