<svg xmlns="http://www.w3.org/2000/svg" width="59" height="59" fill="none"><g fill="#00EB90" filter="url(#a)"><path d="M25.778 22.028c-5.322 5.686.364 11.008-3.2 14.79-3.945 4.24-11.105-3.298-14.645.484l-.113.12c-.893-2.304-1.395-4.786-1.482-7.397C5.998 19.74 12.38 10.797 21.513 7.39l.097.114c5.685 5.321 9.174 9.175 4.168 14.523ZM45.108 46.743c-3.9 3.468-9.012 5.644-14.679 5.832-.7.023-1.4.022-2.102-.024 0-.024-.025-.07-.026-.093a8.932 8.932 0 0 1 2.072-8.66 8.904 8.904 0 0 1 8.508-2.522 8.776 8.776 0 0 1 6.227 5.467Z"/><path d="M30.417 54.326c-13.83.457-25.44-10.412-25.898-24.242-.457-13.829 10.413-25.44 24.242-25.897C42.59 3.73 54.2 14.599 54.658 28.428c.457 13.83-10.412 25.441-24.241 25.898Zm-1.54-46.641c-11.894.393-21.253 10.39-20.86 22.284.393 11.893 10.391 21.252 22.285 20.859 11.893-.393 21.251-10.39 20.858-22.284-.392-11.894-10.39-21.252-22.284-20.86Z"/></g><defs><filter id="a" width="50.167" height="52.167" x="4.505" y="4.173" color-interpolation-filters="sRGB" filterUnits="userSpaceOnUse"><feFlood flood-opacity="0" result="BackgroundImageFix"/><feBlend in="SourceGraphic" in2="BackgroundImageFix" result="shape"/><feColorMatrix in="SourceAlpha" result="hardAlpha" values="0 0 0 0 0 0 0 0 0 0 0 0 0 0 0 0 0 0 127 0"/><feOffset dy="2"/><feGaussianBlur stdDeviation="1.85"/><feComposite in2="hardAlpha" k2="-1" k3="1" operator="arithmetic"/><feColorMatrix values="0 0 0 0 1 0 0 0 0 1 0 0 0 0 1 0 0 0 1 0"/><feBlend in2="shape" result="effect1_innerShadow_2019_117"/></filter></defs></svg>