<svg xmlns="http://www.w3.org/2000/svg" width="55" height="56" fill="none"><g fill="#B96EFF" filter="url(#a)"><path d="M25.786 11.093c-4.565 3.826-8.136 8.902-10.07 14.841a12.748 12.748 0 0 0-8.851-8.157l-3.42-.895a1.242 1.242 0 0 1-.89-.92 1.215 1.215 0 0 1 .37-1.219l2.145-1.908c5.834-5.167 14.207-5.819 20.716-1.742ZM40.523 52.684l-2.146 1.909c-.236.234-.565.339-.886.32a1.907 1.907 0 0 1-.368-.071 1.295 1.295 0 0 1-.786-.989l-.489-3.526c-.612-4.377-3.374-8.061-7.41-9.885a1.293 1.293 0 0 1-.45-.373 32.61 32.61 0 0 0 16.324-8.498c3.803 7.094 2.254 15.76-3.789 21.113Z"/><path d="m54.404 6.561-.07-1.344a1.217 1.217 0 0 0-1.024-1.176l-1.327-.201c-9.708-1.56-19.155 1.336-26.198 7.25-4.565 3.827-8.136 8.902-10.07 14.842a29.222 29.222 0 0 0-.911 3.27c-.073.393.028.796.284 1.084l3.142 3.533 2.983-2.654a1.869 1.869 0 0 1 2.62.153 1.869 1.869 0 0 1-.152 2.62l-2.983 2.654 3.119 3.507c.233.261.547.404.868.423.05.002.124.007.2-.014a39.634 39.634 0 0 0 3.101-.439 32.61 32.61 0 0 0 16.323-8.497c6.57-6.29 10.492-15.264 10.095-25.011Zm-13.71 17.68a5.881 5.881 0 0 1-4.279 1.486 5.882 5.882 0 0 1-4.077-1.974c-2.165-2.434-1.945-6.192.49-8.381 2.356-2.12 6.26-1.867 8.38.49 2.14 2.456 1.92 6.214-.514 8.379Z"/><path d="m18.231 33.82-2.049-2.303c-5.11.842-9.286 4.816-10.191 10.121l-.839 5.012c-.07.368.031.746.289 1.009.208.26.522.402.843.421l.149.009 5.051-.276a12.338 12.338 0 0 0 11.24-8.943l-2.026-2.277-2.467-2.773Z"/></g><defs><filter id="a" width="51.919" height="53.493" x="2.513" y="3.422" color-interpolation-filters="sRGB" filterUnits="userSpaceOnUse"><feFlood flood-opacity="0" result="BackgroundImageFix"/><feBlend in="SourceGraphic" in2="BackgroundImageFix" result="shape"/><feColorMatrix in="SourceAlpha" result="hardAlpha" values="0 0 0 0 0 0 0 0 0 0 0 0 0 0 0 0 0 0 127 0"/><feOffset dy="2"/><feGaussianBlur stdDeviation="1.85"/><feComposite in2="hardAlpha" k2="-1" k3="1" operator="arithmetic"/><feColorMatrix values="0 0 0 0 1 0 0 0 0 1 0 0 0 0 1 0 0 0 1 0"/><feBlend in2="shape" result="effect1_innerShadow_1_53842"/></filter></defs></svg>